<svg version="1.2" xmlns="http://www.w3.org/2000/svg" viewBox="0 0 65 65" width="65" height="65">
	<title>Untitled design-svg</title>
	<style>
		.s0 { fill: #194592 } 
	</style>
	<path id="Layer" fill-rule="evenodd" class="s0" d="m64.9 64c0 0.5-0.5 1-1 1h-62.8c-0.5 0-1-0.5-1-1 0-0.6 0.5-1 1-1h1v-41.1c0-1.1 0.7-2.6 1.5-3.4l7.3-6.4c0.2-0.2 0.5-0.4 0.7-0.5 0.8-0.4 1.8-0.4 2.6 0l4.3 2.3c1 0.5 1.9 1.8 1.9 2.9v46.2h2v-55.7c0-1.1 0.7-2.6 1.5-3.4l3.4-3c0.8-0.8 2.3-0.9 3.2-0.3l6.3 3.6c1 0.6 1.8 2 1.8 3.1v55.7h2v-22.4c0-1.1 0.8-2.4 1.8-2.9l4-2.1c0.5-0.3 1.2-0.4 1.9-0.4 0.6 0 1.3 0.1 1.7 0.3l5 2.3c1 0.4 1.8 1.7 1.8 2.8v22.4h4v-3.8l-2-1.1v-2.3l2 1.1v-3.8l-2-1.1v-2.3l2 1.1v-3.8l-2-1v-2.3l2 1v-3.8l-2-1c0 0-0.2-2.1-0.5-2.6l2.5 1.4v-3.8l-7.5-4v3.4l-2.1-1v-26.3l-2.7 2.4c-0.4 0.4-0.8 1.4-0.8 1.9v21.6c-0.5 0.1-2 0.8-2 0.8v-22.4c0-1.1 0.6-2.6 1.5-3.4l3.4-3c0.9-0.8 2.2-0.8 3.2-0.3 0 0 7.3 3.7 7.3 3.7 1 0.5 1.8 1.9 1.8 3v51.7h1c0.5 0 1 0.4 1 1zm-53.2-10.2l-7.5 6.4v2.8h1.1l6.4-5.5zm0 6.3l-3.3 2.9h3.3zm0-13l-7.5 6.5v3.9l7.5-6.4zm0-6.6l-7.5 6.4v4l7.5-6.5zm0-6.6l-7.5 6.5v3.9l7.5-6.4zm0-6.6l-7.5 6.4v4l7.5-6.5zm0-6.6l-7.5 6.5v3.9l7.5-6.5zm0-6.8l-6.7 6c-0.4 0.4-0.8 1.3-0.8 1.9v2.7l7.5-6.4zm24.8 47.2l-6-3.4v5.1h6zm0-6l-6-3.5v3.8l6 3.4zm0-6.1l-6-3.4v3.8l6 3.4zm0-6.1l-6-3.4v3.7l6 3.5zm0-6.1l-6-3.4v3.7l6 3.4zm0-6l-6-3.5v3.8l6 3.4zm0-6.1l-6-3.4v3.8l6 3.4zm0-6.1l-6-3.4v3.7l6 3.5zm0-6.1l-6-3.4v3.7l6 3.4zm0-5.4c0-0.4-0.4-1.1-0.7-1.3l-5.3-3.1v4.1l6 3.4zm6.8 32.2c-0.3 0.2-0.7 0.8-0.7 1.2v22.3h4.6v-25.5zm11.4 1.2c0-0.4-0.3-0.9-0.6-1.1l-4.9-2.2v25.6h5.5zm6.1-11.8l-7.6-4v3.7l7.6 4zm0-6l-7.6-4v3.8l7.6 4zm0-6.1l-7.6-4v3.8l7.6 4zm0-5.4c0-0.4-0.4-1-0.7-1.2l-6.9-3.5v3.8l7.6 4z"/>
</svg>