<svg version="1.2" xmlns="http://www.w3.org/2000/svg" viewBox="0 0 210 221" width="210" height="221">
	<title>logo-svg</title>
	<defs>
		<clipPath clipPathUnits="userSpaceOnUse" id="cp1">
			<path d="m46.18 88.21c-6.03 32.77 15.64 64.24 48.41 70.29 32.79 6.05 64.25-15.63 70.3-48.41 6.05-32.78-15.62-64.25-48.4-70.3q-5.57-1.01-11.03-1.01c-28.53 0-53.91 20.34-59.28 49.43z"/>
		</clipPath>
		<radialGradient id="g1" cx="32" cy="98.4" r="138" gradientUnits="userSpaceOnUse">
			<stop offset="0" stop-color="#0aa4df"/>
			<stop offset=".1" stop-color="#0aa4df"/>
			<stop offset="1" stop-color="#194592"/>
		</radialGradient>
	</defs>
	<style>
		.s0 { fill: #194592 } 
		.s1 { fill: #f7931d } 
		.s2 { fill: #d92128 } 
		.s3 { fill: #0aa4df } 
		.s4 { fill: url(#g1) } 
	</style>
	<g id="Layer 1">
		<g id="&lt;Group&gt;">
			<path id="&lt;Path&gt;" class="s0" d="m26.3 152.9l-5.2-9.3 166.7-92.5 5.2 9.3z"/>
			<path id="&lt;Path&gt;" class="s1" d="m164.7 54.1c-2.3 12.2 5.8 23.8 17.9 26.1 12.2 2.2 23.9-5.8 26.1-18 2.3-12.1-5.8-23.8-18-26.1-12.1-2.2-23.8 5.8-26 18z"/>
			<path id="&lt;Path&gt;" class="s2" d="m1 140.1c-2.5 13.6 6.4 26.5 19.9 29 13.6 2.5 26.5-6.4 29-19.9 2.5-13.5-6.4-26.5-19.9-29-13.6-2.5-26.5 6.4-29 19.9z"/>
			<path id="&lt;Path&gt;" class="s0" d="m146.7 191.8l-92.5-166.7 9.2-5.1 92.6 166.7z"/>
			<path id="&lt;Path&gt;" class="s3" d="m36.9 18.5c-2.2 12.1 5.8 23.8 18 26 12.1 2.3 23.8-5.7 26.1-17.9 2.2-12.2-5.8-23.9-18-26.1-12.2-2.3-23.8 5.8-26.1 18z"/>
			<path id="&lt;Path&gt;" class="s0" d="m121.9 191.3c0.7 16.7 14.7 29.6 31.3 29 16.7-0.7 29.6-14.7 29-31.3-0.7-16.7-14.7-29.6-31.3-29-16.7 0.6-29.6 14.7-29 31.3z"/>
			<g id="Clip-Path: &lt;Clip Group&gt;" clip-path="url(#cp1)">
				<g id="&lt;Clip Group&gt;">
					<path id="&lt;Path&gt;" class="s4" d="m223.7 135.9l-153.8 83.5-82.5-152 153.8-83.4z"/>
				</g>
			</g>
		</g>
	</g>
</svg>