<svg version="1.2" xmlns="http://www.w3.org/2000/svg" viewBox="0 0 200 211" width="200" height="211">
	<title>logo-white-svg</title>
	<defs>
		<clipPath clipPathUnits="userSpaceOnUse" id="cp1">
			<path d="m44.35 84.21c-5.67 30.89 14.73 60.57 45.6 66.28 30.89 5.7 60.56-14.75 66.24-45.64 5.7-30.92-14.7-60.59-45.6-66.3q-5.24-0.98-10.37-0.95c-26.9 0-50.81 19.18-55.87 46.61z"/>
		</clipPath>
	</defs>
	<style>
		.s0 { fill: #194592 } 
		.s1 { fill: #fefefe } 
		.s2 { fill: #f7931d } 
		.s3 { fill: #d92128 } 
		.s4 { fill: #0aa4df } 
	</style>
	<g id="Layer 1">
		<path id="&lt;Path&gt;" class="s0" d="m321.1-121.7v778"/>
		<g id="&lt;Group&gt;">
			<path id="&lt;Path&gt; copy" class="s1" d="m115.7 181.5c0.5 15.7 13.8 27.9 29.4 27.3 15.7-0.8 27.9-13.8 27.3-29.5-0.5-15.6-13.8-28.1-29.4-27.3q-4.4 0-8.1 1.4l-74.4-133.7-8.6 4.9 74 133.9c-6.4 5.4-10.5 13.8-10.2 23z"/>
			<path id="&lt;Path&gt;" class="s1" d="m25.7 145.3l-4.9-9 157-87.1 4.9 8.7z"/>
			<path id="&lt;Path&gt;" class="s2" d="m155.9 51.9c-2.1 11.7 5.5 22.5 17.1 24.7 11.3 2.1 22.4-5.5 24.6-16.8 2.1-11.6-5.7-22.5-17.1-24.6-11.3-2.2-22.4 5.4-24.6 16.7z"/>
			<path id="&lt;Path&gt;" class="s3" d="m1.6 133.1c-2.1 12.7 6.2 25.2 18.9 27.3 12.7 2.4 24.9-5.9 27.3-18.7 2.5-12.7-5.9-25.1-18.6-27.3-13-2.4-25.1 6-27.6 18.7z"/>
			<path id="&lt;Path&gt;" class="s4" d="m35.7 18.4c-2.2 11.6 5.4 22.4 16.7 24.6 11.7 2.2 22.7-5.4 24.6-17 2.2-11.4-5.4-22.5-16.7-24.6-11.7-1.9-22.5 5.6-24.6 17z"/>
			<g id="Clip-Path: &lt;Clip Group&gt;" clip-path="url(#cp1)">
				<g id="&lt;Clip Group&gt;">
					<path id="&lt;Path&gt;" class="s1" d="m211.6 129.3l-144.8 78.7-77.9-143.3 144.9-78.8z"/>
				</g>
			</g>
		</g>
	</g>
</svg>