<svg version="1.2" xmlns="http://www.w3.org/2000/svg" viewBox="0 0 442 198" width="442" height="198">
	<title>The logo with reserve color</title>
	<defs>
		<clipPath clipPathUnits="userSpaceOnUse" id="cp1">
			<path d="m384.41 31.13c-2.1 11.42 5.45 22.39 16.87 24.5 11.43 2.11 22.41-5.45 24.51-16.87 2.11-11.43-5.44-22.4-16.87-24.51q-1.94-0.36-3.84-0.35c-9.95 0-18.8 7.09-20.67 17.23z"/>
		</clipPath>
	</defs>
	<style>
		.s0 { fill: #194592 } 
		.s1 { fill: #fefefe } 
		.s2 { fill: #f7931d } 
		.s3 { fill: #d92128 } 
		.s4 { fill: #0aa4df } 
	</style>
	<g id="Layer 1">
		<path id="&lt;Path&gt;" class="s0" d="m486.8-45v287.6"/>
		<g id="&lt;Group&gt;">
			<g id="&lt;Group&gt;">
				<path id="&lt;Path&gt;" class="s1" d="m62.2 119.5v-12.1q-0.1-1.1-1.3-1.1h-39.8q-1.3 0-1.3-1.3v-10.5q0-3 1.3-4.6 1.4-1.6 4.9-1.6h39.1q1.3 0 1.3-1.1v-12.1q0-1.1-1.3-1.1h-45.3q-4.1 0-7.5 0.9-3.4 0.9-6 2.8-2.5 1.8-3.9 4.6-1.4 2.7-1.4 6.5v63.4q0 1.1 1.3 1.1h16.2q1.3 0 1.3-1.1v-30.3q0-1.3 1.3-1.3h39.8q1.2 0 1.3-1.1z"/>
				<path id="&lt;Compound Path&gt;" fill-rule="evenodd" class="s1" d="m122.4 80.5l26.1 72.1q0 0.7-0.9 0.7h-17q-1.3 0-1.7-1l-6.9-19.2q-0.3-1.1-1.6-1.1h-30.5q-1.3 0-1.7 1.3l-6.9 18.9q-0.4 1.1-1.6 1.1h-16.9q-1 0-1-0.7l26.3-72.1q1.5-4.3 5.7-5.4 4.1-1.1 11.3-1.2 7.4 0.1 11.6 1.2 4.2 1.1 5.7 5.4zm-6.6 35.6q0-0.1 0-0.2-0.1-0.1-0.1-0.3l-9.1-25.3q-0.4-1.2-0.6-1.6-0.3-0.4-0.9-0.4-0.7 0-1.5 2l-9 25.3q0 0.2-0.1 0.3-0.1 0.1-0.1 0.2 0 0.8 1.1 0.8h19.3q1 0 1-0.8z"/>
				<path id="&lt;Compound Path&gt;" fill-rule="evenodd" class="s1" d="m228.7 151.8q0.7 0.7 0.7 0.9 0 0.6-0.8 0.6h-17.9q-0.8 0-1.7-1.2-0.9-1.1-1.1-1.9l-8.1-19.4q-1.8-6.2-7.4-6.8h-15.8q-1.3 0-1.3 1.1v27.1q0 1.1-1.3 1.1h-16.2q-1.3 0-1.3-1.1v-77.1q0-1.1 1.3-1.1h48.3q3.6 0 7.1 1.2 3.5 1.2 6.9 4.2 5.8 5.2 6.2 15.7v2.5q0 9.8-2.7 14.2-1.9 2.2-3.8 4-1.9 1.9-5.3 3.4-0.1 0.1-0.3 0.3-0.2 0.3-0.2 0.6 0 0.2 0.1 0.4 3 3.4 4.2 5.8 1.2 2.5 2.3 5.2l7.1 18.7q0.3 0.9 1 1.6zm-20.7-54.3q0-1.5-0.2-2.8-0.2-1.3-0.8-2.4-2.1-3.6-5-4h-25.4q-1.3 0-1.3 1.1v18.1q0 1.1 1.5 1.1h23.4q1.8 0 4-1.6 1.9-1.3 2.8-3.8 1-2.6 1-5.7z"/>
				<path id="&lt;Compound Path&gt;" fill-rule="evenodd" class="s1" d="m303.6 152.3l-6.9-19.2q-0.4-1.1-1.7-1.1h-30.5q-1.3 0-1.7 1.3l-6.8 18.9q-0.4 1.1-1.7 1.1h-16.9q-1 0-1-0.7l26.3-72.1q1.6-4.3 5.7-5.4 4.2-1.1 11.3-1.2 7.4 0.1 11.6 1.2 4.2 1.1 5.8 5.4l26 72.1q0 0.7-0.9 0.7h-17q-1.3 0-1.6-1zm-13.1-36.2q0-0.1-0.1-0.2-0.1-0.1-0.1-0.3l-9.1-25.3q-0.3-1.2-0.6-1.6-0.3-0.4-0.9-0.4-0.7 0-1.4 2l-9.1 25.3q0 0.2-0.1 0.3 0 0.1 0 0.2 0 0.8 1 0.8h19.3q1.1 0 1.1-0.8z"/>
				<path id="&lt;Compound Path&gt;" fill-rule="evenodd" class="s1" d="m403.3 125.5q0.2 1.3 0.2 2.3 0 5.3-1.2 10-1.1 4.6-4 8.1-3 3.4-7.8 5.4-4.8 2-12.1 2h-45.9q-1.3 0-1.3-1.1v-77.1q0-1.2 1.3-1.2h46.6q4.7 0.1 8.7 1.4 3.9 1.3 6.8 3.8 2.9 2.5 4.6 6 1.7 3.6 1.7 8 0 6-1.2 9.5-1.1 3.4-2.6 5.3-1.5 1.8-2.7 2.4-1.1 0.6-1.1 0.9 0 0.6 2 2.4 2 1.7 4.4 4.1 1 0.9 1.7 2.3 0.7 1.3 1.2 2.7 0.5 1.4 0.7 2.8zm-53.3-20.9q0 1.1 1.3 1.1h22.4q5.2 0 7.4-1.9 2.2-2 2.2-7.1 0-4.7-2.9-6.5-2.8-1.9-6.7-1.9h-22.4q-1.3 0-1.3 1.1zm36.1 24.8q0-2.5-0.7-4.2-0.7-1.8-1.8-2.7-1.1-1-2.5-1.4-1.3-0.4-2.5-0.4h-27.3q-1.3 0-1.3 1.1v16q0 1.1 1.3 1.1h27.3q2.2 0 3.6-1 1.5-1 2.4-2.4 0.9-1.5 1.2-3.2 0.3-1.7 0.3-2.9z"/>
				<path id="&lt;Path&gt;" class="s1" d="m430.8 82.3h-16.2q-1.3 0-1.3 1.2l-0.1 68.7q0 1.1 1.3 1.1h16.2q1.3 0 1.3-1.1l0.1-68.7q0-1.2-1.3-1.2z"/>
				<path id="&lt;Compound Path&gt;" fill-rule="evenodd" class="s1" d="m16.4 174.6q0.9 1.5 0.9 3.9 0 2.4-0.8 4-0.9 1.7-2.3 2.7-1.5 1-3.3 1.5-1.9 0.4-3.8 0.4h-0.6q-0.5 0-0.9 0-0.5 0-1-0.1-0.4 0-0.6-0.1v9.9h-3.1v-25.7q1.4-0.3 3.1-0.4 1.6-0.1 3.2-0.1 1.8 0 3.6 0.3 1.8 0.3 3.2 1.2 1.5 0.9 2.4 2.5zm-2.4 3.9q0-1.5-0.6-2.5-0.5-1-1.5-1.6-1-0.7-2.2-0.9-1.2-0.3-2.4-0.3-1 0-1.9 0.1-0.9 0-1.4 0.1v10.8q0.2 0.1 0.6 0.1 0.4 0 0.9 0 0.4 0.1 0.8 0.1h0.6q1.3 0 2.6-0.3 1.2-0.2 2.3-0.9 1-0.6 1.6-1.7 0.6-1.2 0.6-3z"/>
				<path id="&lt;Path&gt;" class="s1" d="m35.6 184.8h10.3v-2.7h-10.3v-8.5h11.3v-2.7h-14.4v25.9h14.6v-2.7h-11.5z"/>
				<path id="&lt;Path&gt;" class="s1" d="m60.8 173.6h8.2v23.2h3.1v-23.2h8.2v-2.7h-19.5z"/>
				<path id="&lt;Compound Path&gt;" fill-rule="evenodd" class="s1" d="m106 186.5l6.6 10.3h-3.7l-7.3-11.2-3.7-0.5v11.7h-3.1v-25.7q1.4-0.2 3.3-0.4 1.9-0.1 3.4-0.1 1.7 0 3.3 0.3 1.6 0.4 2.8 1.2 1.1 0.9 1.9 2.3 0.7 1.4 0.7 3.3 0 3.1-1.7 4.9-1.7 1.9-4.3 2.6zm-0.8-4.8q1.6-1.3 1.6-3.9 0-2.1-1.3-3.4-1.4-1.2-3.9-1.2h-1.1q-0.5 0-1 0-0.5 0-0.9 0.1-0.4 0-0.7 0.1v9.5h3q2.6 0 4.3-1.2z"/>
				<path id="&lt;Compound Path&gt;" fill-rule="evenodd" class="s1" d="m146 178.3q0.6 2.5 0.6 5.5 0 6.5-2.8 10-2.8 3.5-8 3.5-2.8 0-4.8-1-2-1-3.3-2.7-1.4-1.8-2-4.3-0.7-2.4-0.7-5.5 0-6.5 2.8-9.9 2.8-3.5 8-3.5 2.8 0 4.8 1 2.1 0.9 3.4 2.7 1.3 1.8 2 4.2zm-2.7 5.5q0-2.1-0.4-4-0.5-2-1.4-3.4-0.9-1.5-2.3-2.4-1.4-0.8-3.4-0.8-3.5 0-5.5 2.6-1.9 2.6-1.9 8 0 2.2 0.4 4.1 0.4 1.9 1.3 3.4 0.9 1.5 2.4 2.3 1.4 0.9 3.3 0.9 3.5 0 5.5-2.6 2-2.6 2-8.1z"/>
				<path id="&lt;Path&gt;" class="s1" d="m176.5 194.2q-1.2 0.3-2.9 0.3-1.9 0-3.5-0.7-1.6-0.6-2.8-2-1.2-1.3-1.9-3.3-0.7-2-0.7-4.7 0-2.9 0.7-5 0.8-2 1.9-3.3 1.2-1.2 2.7-1.8 1.6-0.5 3.1-0.5 3.4 0 5.2 0.8l0.7-2.7q-1-0.4-2.4-0.6-1.5-0.3-3.7-0.3-2.1 0-4.2 0.8-2 0.7-3.7 2.3-1.6 1.6-2.6 4.2-1 2.5-1 6.1 0 3.5 0.9 6.1 0.9 2.5 2.5 4.1 1.5 1.7 3.6 2.5 2.1 0.8 4.4 0.8 2 0 3.7-0.4 1.8-0.3 2.9-1.2l-0.8-2.4q-0.8 0.5-2.1 0.9z"/>
				<path id="&lt;Path&gt;" class="s1" d="m210.4 182.2h-12.7v-11.3h-3.1v25.9h3.1v-11.9h12.7v11.9h3.1v-25.9h-3.1z"/>
				<path id="&lt;Path&gt;" class="s1" d="m233.6 184.8h10.3v-2.7h-10.3v-8.5h11.3v-2.7h-14.4v25.9h14.6v-2.7h-11.5z"/>
				<path id="&lt;Path&gt;" class="s1" d="m274.4 184.1l-1.2 2.9h-0.1l-1.2-2.9-8.3-13.2h-2.3v25.9h2.9v-17.5l-0.5-3.8h0.2l1.4 3.5 7.2 11.8h1l6.8-11.8 1.5-3.5h0.2l-0.4 3.9v17.4h3.1v-25.9h-2.4z"/>
				<path id="&lt;Path&gt;" class="s1" d="m302.4 196.8h3.1v-25.9h-3.1z"/>
				<path id="&lt;Path&gt;" class="s1" d="m337.2 194.2q-1.2 0.3-2.9 0.3-1.9 0-3.5-0.7-1.6-0.6-2.8-2-1.2-1.3-1.9-3.3-0.6-2-0.6-4.7 0-2.9 0.7-5 0.7-2 1.9-3.3 1.2-1.2 2.7-1.8 1.5-0.5 3-0.5 3.4 0 5.2 0.8l0.8-2.7q-1.1-0.4-2.5-0.6-1.4-0.3-3.7-0.3-2.1 0-4.1 0.8-2.1 0.7-3.7 2.3-1.7 1.6-2.7 4.2-1 2.5-1 6.1 0 3.5 0.9 6.1 0.9 2.5 2.5 4.1 1.5 1.7 3.6 2.5 2.1 0.8 4.5 0.8 1.9 0 3.7-0.4 1.7-0.3 2.8-1.2l-0.7-2.4q-0.9 0.5-2.2 0.9z"/>
				<path id="&lt;Compound Path&gt;" fill-rule="evenodd" class="s1" d="m362.8 170.4l10 26.4h-3.3l-2.7-7.2h-9.7l-2.6 7.2h-3.1l10-26.4zm0.1 8.6l-0.9-3.9h-0.1l-0.9 4-2.9 7.8h7.7z"/>
				<path id="&lt;Path&gt;" class="s1" d="m390 170.9h-3.1v25.9h15.6v-2.7h-12.5z"/>
				<path id="&lt;Path&gt;" class="s1" d="m428.7 184.2q-1.4-1-3.1-1.7-1.6-0.8-3-1.5-1.4-0.8-2.4-1.8-0.9-0.9-0.9-2.4 0-1.5 1.2-2.6 1.3-1 3.8-1 2.1 0 3.7 0.3 1.7 0.4 2.6 0.8l0.9-2.7q-1-0.5-2.9-0.9-1.9-0.3-4.2-0.3-4 0-6.1 1.8-2.2 1.8-2.2 4.8 0 2.2 1 3.5 0.9 1.4 2.3 2.4 1.5 0.9 3.1 1.6 1.7 0.7 3.1 1.4 1.4 0.8 2.4 1.8 0.9 1 0.9 2.5 0 1.1-0.5 1.9-0.4 0.9-1.2 1.4-0.8 0.5-1.9 0.8-1.1 0.2-2.4 0.2-2.1 0-3.8-0.4-1.7-0.5-2.5-1l-1.1 2.8q1 0.5 2.9 0.9 1.8 0.5 4.6 0.5 2.2 0 3.8-0.6 1.7-0.5 2.9-1.4 1.1-1 1.7-2.3 0.6-1.4 0.6-3.1 0-2-0.9-3.4-1-1.3-2.4-2.3z"/>
				<path id="&lt;Path&gt;" class="s1" d="m410.8 67.1c0.2 5.8 5.1 10.3 10.9 10.1 5.8-0.3 10.3-5.1 10.1-10.9-0.2-5.8-5.1-10.4-10.9-10.1q-1.6 0-3 0.5l-27.5-49.4-3.2 1.8 27.4 49.5c-2.4 2-3.9 5.1-3.8 8.5z"/>
			</g>
			<path id="&lt;Path&gt;" class="s1" d="m377.5 53.7l-1.8-3.3 58.1-32.2 1.8 3.2z"/>
			<path id="&lt;Path&gt;" class="s2" d="m425.7 19.2c-0.8 4.3 2 8.3 6.3 9.1 4.2 0.8 8.3-2 9.1-6.2 0.8-4.3-2.1-8.3-6.3-9.1-4.2-0.8-8.3 2-9.1 6.2z"/>
			<path id="&lt;Path&gt;" class="s3" d="m368.6 49.2c-0.8 4.7 2.3 9.3 7 10.1 4.7 0.9 9.2-2.2 10.1-6.9 0.9-4.7-2.2-9.3-6.9-10.1-4.8-0.9-9.3 2.2-10.2 6.9z"/>
			<path id="&lt;Path&gt;" class="s4" d="m381.2 6.8c-0.8 4.3 2 8.3 6.2 9.1 4.3 0.8 8.4-2 9.1-6.3 0.8-4.2-2-8.3-6.2-9.1-4.3-0.7-8.3 2.1-9.1 6.3z"/>
			<g id="&lt;Clip Group&gt;" clip-path="url(#cp1)">
				<path id="&lt;Path&gt;" class="s1" d="m446.3 47.8l-53.6 29.1-28.8-53 53.6-29.1z"/>
			</g>
		</g>
	</g>
</svg>