<svg version="1.2" xmlns="http://www.w3.org/2000/svg" viewBox="0 0 110 111" width="110" height="111">
	<title>num1-svg</title>
	<defs>
		<clipPath clipPathUnits="userSpaceOnUse" id="cp1">
			<path d="m0 67h110v43.28h-110z"/>
		</clipPath>
		<clipPath clipPathUnits="userSpaceOnUse" id="cp2">
			<path d="m32 0.03h46v47.97h-46z"/>
		</clipPath>
	</defs>
	<style>
		.s0 { fill: #ffffff } 
		.s1 { fill: #f7931d } 
	</style>
	<path id="Layer" class="s0" d="m1.1 40.7l29.2 13.8q0.5 0.2 1 0.1l10.6-1.8c6.1-1 12.3 1.1 16.7 5.5l8.9 9c0.5 0.6 0.8 1.3 0.8 2.1-0.1 0.8-0.5 1.5-1.1 2-0.9 0.7-2.2 0.7-3.2 0.1l-8.7-6.2c-1.2-0.9-2.9-0.8-4 0.2l-6.3 5.8c-0.7 0.6-0.7 1.6-0.1 2.3 0.5 0.6 1.6 0.7 2.2 0.1l6.4-5.8 8.7 6.2c1 0.7 2.2 1.1 3.4 1.1 1.3 0 2.6-0.5 3.6-1.3 1.3-1 2.2-2.6 2.3-4.3 0.1-1.7-0.5-3.3-1.7-4.5l-7.1-7.2c3.7-0.9 7.7-0.8 11.4 0.5l3.8 1.3q0.6 0.2 1.2 0.2 1 0 1.9-0.5 0.1-0.1 0.1-0.1l27.8-16.2c0.7-0.5 1-1.5 0.5-2.2-0.4-0.8-1.4-1.1-2.2-0.6l-27.7 16.2q-0.3 0.2-0.6 0.1l-3.8-1.3c-4.8-1.6-10.1-1.6-15 0-5-4.7-11.9-6.8-18.7-5.6l-10.2 1.6-28.7-13.5c-0.8-0.4-1.8-0.1-2.2 0.7-0.3 0.9 0 1.8 0.8 2.2z"/>
	<g id="Clip-Path" clip-path="url(#cp1)">
		<g id="Layer">
			<path id="Layer" fill-rule="evenodd" class="s0" d="m109 73.1l-13.8 6.8-0.9 1.2c-1.8 2.6-4.2 4.7-7 6.1 0 1.5-0.7 3-1.9 4.1l-0.2 0.2c-1.1 0.9-2.4 1.3-3.7 1.3q-0.3 0-0.5 0 0 0.1 0 0.1c-0.1 1.5-0.8 2.9-2 3.9l-0.2 0.2c-1.1 0.9-2.4 1.4-3.7 1.4q-0.2 0-0.5 0c0 1.4-0.7 2.9-1.9 3.9l-0.2 0.2c-1.1 1-2.4 1.4-3.7 1.4q-0.3 0-0.5 0c-0.1 1.5-0.7 2.9-1.9 4l-0.3 0.2c-1 0.9-2.3 1.4-3.7 1.4q-0.2 0-0.4-0.1c-1.2 0-2.2-0.5-3.1-1.2l-0.6 0.5c-1.1 1.1-2.6 1.6-4.1 1.6-1.5 0-3-0.6-4.2-1.8q0 0 0 0c-1-1.1-1.5-2.4-1.6-3.8-1.7 0.2-3.5-0.4-4.7-1.7q-0.1 0-0.1 0c-1-1.2-1.5-2.6-1.5-4-1.7 0.1-3.4-0.5-4.6-1.7q-0.1 0-0.1-0.1c-1.2-1.3-1.7-3-1.5-4.6-1.4-0.2-2.7-0.9-3.7-2q-0.5-0.6-0.8-1.2l-2-1.2c-3.3-1.9-6.2-4.3-8.6-7.3l-0.7-0.9-19-9.3c-0.8-0.4-1.2-1.4-0.8-2.2 0.4-0.8 1.4-1.1 2.2-0.7l19.3 9.5q0.4 0.2 0.6 0.4l0.9 1.2c2.1 2.6 4.7 4.8 7.7 6.5 0.2-1.1 0.8-2.1 1.7-3q0 0 0 0l1.8-1.5 5.3-4.9c0.7-0.6 1.7-0.6 2.3 0.1 0.6 0.6 0.6 1.7-0.1 2.3l-5.4 4.9-1.7 1.5c-1.1 1-1.2 2.6-0.3 3.7 0.8 0.9 2.1 1.1 3.1 0.6 0.7-0.3 1.6-0.2 2 0.4 0.5 0.6 0.5 1.5 0 2.1-0.8 1-0.8 2.5 0.1 3.4 1 1 2.7 1.1 3.8 0.1v-0.1c0.6-0.6 1.6-0.5 2.2 0.1 0.6 0.5 0.7 1.5 0.1 2.2-0.9 1-0.8 2.5 0.1 3.4 1 1 2.7 1.1 3.8 0.1l0.1-0.2c0.7-0.6 1.6-0.6 2.2 0 0.7 0.6 0.7 1.6 0.2 2.2-0.9 1-0.9 2.5 0 3.5 1 1 2.8 1 3.8 0q0 0 0 0l0.6-0.5-1.4-1.5c-1-1.2-1.5-2.7-1.3-4.2 0.1-1.5 0.7-2.9 1.9-3.9l0.2-0.2c1.2-1 2.7-1.5 4.2-1.3 0.1-1.5 0.7-2.9 1.9-4l0.3-0.2c1.2-1 2.7-1.5 4.1-1.4 0.1-1.4 0.8-2.9 2-3.9l0.2-0.2c1.2-1 2.6-1.5 4.1-1.4q0.1 0 0.1 0c0.1-1.5 0.7-2.9 1.9-4l0.3-0.2c2.3-2 5.9-1.8 7.9 0.6l2.9 3.2q0.3 0.4 0.5 0.8c2-1.2 3.8-2.8 5.2-4.7l1.1-1.6q0.3-0.4 0.6-0.6l14.2-6.9c0.8-0.4 1.7-0.1 2.1 0.7 0.4 0.8 0.1 1.8-0.7 2.2zm-44.5 28.9l-2.8-3.3c-0.5-0.5-1.2-0.8-1.9-0.8-0.5 0-1.1 0.2-1.6 0.6l-0.2 0.2c-0.5 0.4-0.8 1-0.8 1.7-0.1 0.6 0.1 1.2 0.6 1.7l2.8 3.3c0.4 0.5 1 0.8 1.6 0.8 0.7 0.1 1.3-0.1 1.8-0.6l0.2-0.2c1.1-0.9 1.2-2.4 0.3-3.4zm6.3-5.6l-2.8-3.2c-0.9-1-2.4-1.1-3.4-0.3l-0.3 0.2c-1 0.9-1.1 2.5-0.2 3.5l2.8 3.2c0.9 1.1 2.4 1.2 3.5 0.3l0.2-0.2c1-0.9 1.1-2.5 0.2-3.5zm6.4-5.5l-2.8-3.3c-0.5-0.4-1.1-0.7-1.7-0.8q-0.1 0-0.2 0c-0.6 0-1.1 0.2-1.6 0.6l-0.2 0.2c-1 0.9-1.1 2.4-0.3 3.5l2.9 3.2c0.8 1 2.4 1.1 3.4 0.3l0.2-0.2c0.5-0.5 0.8-1.1 0.9-1.7 0-0.7-0.2-1.3-0.6-1.8zm6.3-5.5l-2.8-3.3c-0.9-1-2.4-1.1-3.4-0.2l-0.3 0.2c-0.5 0.4-0.7 1-0.8 1.6 0 0.7 0.2 1.3 0.6 1.8l2.8 3.3c0.9 1 2.4 1.1 3.5 0.2l0.2-0.2c1-0.9 1.1-2.4 0.2-3.4z"/>
		</g>
	</g>
	<g id="Clip-Path" clip-path="url(#cp2)">
		<g id="Layer">
			<path id="Layer" class="s1" d="m49.2 45.2l4.5 1.6q0.6 0.3 1.2 0.3 0.7 0 1.3-0.3l4.5-1.6c4-1.5 7.6-4 10.4-7.3 2.7-3.2 4.6-7.1 5.4-11.3 0.2-0.9-0.4-1.7-1.2-1.9-0.9-0.2-1.7 0.4-1.9 1.3-1.5 7.4-6.8 13.6-13.9 16.2l-4.4 1.6q-0.2 0.1-0.3 0l-4.5-1.6c-8.5-3.2-14.2-11.4-14.2-20.5v-14c0-0.4 0.2-0.8 0.6-0.8l18.3-3.6 18.2 3.6c0.3 0 0.6 0.4 0.6 0.8v11.7c0 0.9 0.7 1.6 1.6 1.6 0.9 0 1.6-0.7 1.6-1.6v-11.7c0-2-1.3-3.6-3.2-4l-18.5-3.6q-0.3-0.1-0.6 0l-18.6 3.6c-1.9 0.4-3.2 2-3.2 4v14c0 10.4 6.5 19.9 16.3 23.5z"/>
		</g>
	</g>
	<path id="Layer" fill-rule="evenodd" class="s1" d="m69.3 9.4c0.7 0.1 1.3 0.8 1.3 1.6v10.7c0 7.7-4.9 14.8-12.2 17.4l-2.9 1.1q-0.3 0.1-0.6 0.1-0.2 0-0.5-0.1l-3-1.1c-7.2-2.6-12.1-9.7-12.1-17.4v-10.7c0-0.8 0.5-1.4 1.3-1.6l14.1-2.8q0.3 0 0.6 0zm-1.9 3l-12.3-2.5-12.5 2.5v9.3c0 6.4 4 12.2 10 14.5l2.4 0.8 2.4-0.8c6-2.3 10-8.1 10-14.5z"/>
	<path id="Layer" class="s1" d="m50.8 24.7c-0.6-0.6-1.7-0.6-2.3 0-0.6 0.7-0.5 1.7 0.1 2.3l2.6 2.5c0.3 0.3 0.7 0.4 1.1 0.4q0.1 0 0.1 0c0.5 0 0.9-0.2 1.1-0.6l8.5-10.2c0.5-0.7 0.4-1.7-0.3-2.3-0.7-0.6-1.7-0.5-2.2 0.2l-7.3 8.9z"/>
</svg>