<svg version="1.2" xmlns="http://www.w3.org/2000/svg" viewBox="0 0 151 139" width="151" height="139">
	<title>Untitled design (7)-svg</title>
	<defs>
		<clipPath clipPathUnits="userSpaceOnUse" id="cp1">
			<path d="m95 0.2h22v21.8h-22z"/>
		</clipPath>
		<clipPath clipPathUnits="userSpaceOnUse" id="cp2">
			<path d="m79 47h71.5v91.95h-71.5z"/>
		</clipPath>
		<clipPath clipPathUnits="userSpaceOnUse" id="cp3">
			<path d="m0.5 47h71.5v91.95h-71.5z"/>
		</clipPath>
	</defs>
	<style>
		.s0 { fill: #f7931d } 
		.s1 { fill: #ffffff } 
	</style>
	<path id="Layer" fill-rule="evenodd" class="s0" d="m54.7 53.4v-14.8c0-7.5 5.5-13.6 12.6-14.8-2.1-2.1-3.3-5-3.3-8.1 0-6.4 5.1-11.6 11.5-11.6 6.4 0 11.6 5.2 11.6 11.6 0 3.1-1.3 6-3.4 8.1 7.1 1.2 12.6 7.3 12.6 14.8v14.8c0 1-0.8 1.9-1.8 1.9h-4.9v30.8c0 1-0.8 1.8-1.8 1.8h-24.6c-1 0-1.8-0.8-1.8-1.8v-30.8h-4.8c-1.1 0-1.9-0.9-1.9-1.9zm12.9-37.7c0 4.3 3.5 7.9 7.9 7.9 4.4 0 7.9-3.6 7.9-7.9 0-4.4-3.5-7.9-7.9-7.9-4.4 0-7.9 3.5-7.9 7.9zm-9.2 35.9h4.8c1 0 1.8 0.8 1.8 1.8v30.9h8.7v-19.5c0-1 0.8-1.8 1.8-1.8 1 0 1.8 0.8 1.8 1.8v19.5h8.7v-30.9c0-1 0.8-1.8 1.8-1.8h4.8v-13c0-6.3-5.1-11.4-11.3-11.4h-11.5c-6.3 0-11.4 5.1-11.4 11.4z"/>
	<path id="Layer" fill-rule="evenodd" class="s0" d="m21.4 32.5c0-1 0.9-1.8 1.9-1.8 6 0 10.8-4.9 10.8-10.9 0-1 0.8-1.8 1.8-1.8 1 0 1.9 0.8 1.9 1.8 0 6 4.8 10.9 10.8 10.9 1 0 1.8 0.8 1.8 1.8 0 1-0.8 1.8-1.8 1.8-6 0-10.8 4.9-10.8 10.9 0 1-0.9 1.8-1.9 1.8-1 0-1.8-0.8-1.8-1.8 0-6-4.8-10.9-10.8-10.9-1 0-1.9-0.8-1.9-1.8zm8.9 0c2.4 1.3 4.3 3.3 5.6 5.6 1.4-2.3 3.3-4.3 5.7-5.6-2.4-1.3-4.3-3.3-5.7-5.6-1.3 2.3-3.2 4.3-5.6 5.6z"/>
	<g id="Clip-Path" clip-path="url(#cp1)">
		<g id="Layer">
			<path id="Layer" fill-rule="evenodd" class="s0" d="m95.4 10.9c0-1 0.8-1.8 1.8-1.8 4 0 7.1-3.2 7.1-7.1 0-1 0.9-1.8 1.9-1.8 1 0 1.8 0.8 1.8 1.8 0 3.9 3.2 7.1 7.1 7.1 1 0 1.8 0.8 1.8 1.8 0 1-0.8 1.8-1.8 1.8-3.9 0-7.1 3.2-7.1 7.1 0 1-0.8 1.9-1.8 1.9-1 0-1.9-0.9-1.9-1.9 0-3.9-3.1-7-7.1-7-1-0.1-1.8-0.9-1.8-1.9zm7.8 0c1.2 0.8 2.2 1.8 3 3 0.7-1.2 1.7-2.2 2.9-3-1.2-0.8-2.2-1.8-2.9-2.9-0.8 1.1-1.8 2.1-3 2.9z"/>
		</g>
	</g>
	<path id="Layer" fill-rule="evenodd" class="s0" d="m116.6 27.5c1 0 1.8 0.8 1.8 1.8 0 4 3.2 7.1 7.1 7.1 1 0 1.8 0.9 1.8 1.9 0 1-0.8 1.8-1.8 1.8-3.9 0-7.1 3.2-7.1 7.1 0 1-0.8 1.8-1.8 1.8-1 0-1.8-0.8-1.8-1.8 0-3.9-3.2-7.1-7.1-7.1-1 0-1.9-0.8-1.9-1.8 0-1 0.9-1.9 1.9-1.9 3.9 0 7.1-3.1 7.1-7.1 0-1 0.8-1.8 1.8-1.8zm0 7.8c-0.8 1.2-1.8 2.2-3 3 1.2 0.7 2.2 1.7 3 2.9 0.8-1.2 1.8-2.2 2.9-2.9-1.1-0.8-2.1-1.8-2.9-3z"/>
	<g id="Clip-Path" clip-path="url(#cp2)">
		<g id="Layer">
			<path id="Layer" fill-rule="evenodd" class="s1" d="m150.3 90c0 4.2-1.6 7.9-4.4 10.8l-27.5 27.5v8.8c0 1.1-0.8 1.9-1.8 1.9h-34.9c-1 0-1.9-0.8-1.9-1.9v-23.5c0-3.9 1.6-7.7 4.4-10.4l13.9-13.8c1.7-1.8 4.1-2.8 6.6-2.8q0 0 0 0c2.5 0 4.8 1 6.6 2.8q0.9 0.9 1.5 2l7.5-7.5 2.7-25.5c0.7-6.2 5.9-10.9 12.2-10.9 3.1 0 6 1.1 8.2 3.2 2.3 2 3.7 4.8 4 7.9zm-35.6 38.8h-31.2v6.5h31.2zm32-38.6l-2.9-31.3c-0.2-2.1-1.2-4.1-2.8-5.5-1.6-1.5-3.7-2.3-5.8-2.3-4.4 0-8.1 3.3-8.5 7.7l-2.8 26.1c-0.1 0.4-0.2 0.8-0.5 1.1l-9.4 9.3q0 0.3 0 0.6 0 0.1 0 0.1c0 2.5-1 4.9-2.7 6.6l-9.3 9.3c-0.8 0.7-1.9 0.7-2.6 0-0.7-0.8-0.7-1.9 0-2.6l9.3-9.3q0 0 0 0 0 0 0 0c1.1-1.1 1.7-2.5 1.7-4q0-0.5-0.1-1c-0.2-1.2-0.8-2.2-1.6-3-1.1-1.1-2.5-1.7-4-1.7q0 0 0 0c-1.6 0-3 0.6-4.1 1.6l-13.9 13.9c-2 2-3.2 4.9-3.2 7.8v11.6h32.8l27-27c2.1-2.1 3.4-5 3.4-8z"/>
		</g>
	</g>
	<g id="Clip-Path" clip-path="url(#cp3)">
		<g id="Layer">
			<path id="Layer" fill-rule="evenodd" class="s1" d="m66.8 103.2c2.8 2.7 4.4 6.5 4.4 10.4v23.5c0 1.1-0.9 1.9-1.9 1.9h-34.9c-1 0-1.8-0.8-1.8-1.9v-8.8l-27.5-27.5c-2.8-2.9-4.4-6.6-4.4-10.6l2.9-31.6c0.3-3.1 1.7-5.9 4-7.9 2.2-2.1 5.2-3.2 8.2-3.2 6.3 0 11.5 4.7 12.2 10.9l2.7 25.5 7.5 7.5q0.6-1.1 1.5-2c1.8-1.8 4.1-2.8 6.6-2.8 2.6 0 4.9 1 6.7 2.8zm0.6 25.6h-31.2v6.5h31.2zm0-15.3c0-2.9-1.2-5.7-3.2-7.8l-13.9-13.8c-1.1-1.1-2.5-1.7-4-1.7q0 0-0.1 0c-1.5 0-2.9 0.6-4 1.7-0.8 0.8-1.4 1.9-1.6 3q-0.1 0.5-0.1 1 0 0 0 0c0 1.6 0.6 3 1.7 4.1q0 0 0 0l9.3 9.2c0.7 0.7 0.7 1.9 0 2.6-0.7 0.7-1.8 0.7-2.5 0l-9.3-9.2q-0.1 0-0.1 0c-1.7-1.8-2.7-4.1-2.7-6.6q0 0 0-0.1 0-0.3 0-0.6l-9.4-9.4c-0.3-0.3-0.4-0.7-0.5-1.1l-2.8-26.1c-0.4-4.3-4.1-7.6-8.5-7.6-2.1 0-4.2 0.8-5.8 2.2-1.6 1.5-2.5 3.4-2.7 5.6l-2.9 31.4c0 2.8 1.2 5.7 3.3 7.8l27 27h32.8z"/>
		</g>
	</g>
	<path id="Layer" class="s1" d="m127.6 100.7l-11.1 11c-0.7 0.7-0.7 1.9 0 2.6 0.4 0.4 0.8 0.5 1.3 0.5 0.5 0 0.9-0.1 1.3-0.5l11.1-11.1c0.7-0.7 0.7-1.8 0-2.5-0.8-0.7-1.9-0.7-2.6 0z"/>
	<path id="Layer" class="s1" d="m136.5 91.8l-2.1 2c-0.7 0.7-0.7 1.9 0 2.6 0.4 0.4 0.8 0.5 1.3 0.5 0.5 0 0.9-0.1 1.3-0.5l2.1-2c0.7-0.8 0.7-1.9 0-2.6-0.8-0.7-1.9-0.7-2.6 0z"/>
</svg>