<svg version="1.2" xmlns="http://www.w3.org/2000/svg" viewBox="0 0 117 151" width="117" height="151">
	<title>Untitled design (8)-svg</title>
	<defs>
		<clipPath clipPathUnits="userSpaceOnUse" id="cp1">
			<path d="m20 0.48h77v11.52h-77z"/>
		</clipPath>
		<clipPath clipPathUnits="userSpaceOnUse" id="cp2">
			<path d="m0.1 110h116.9v40.48h-116.9z"/>
		</clipPath>
	</defs>
	<style>
		.s0 { fill: #ffffff } 
		.s1 { fill: #f7931d } 
	</style>
	<g id="Clip-Path" clip-path="url(#cp1)">
		<g id="Layer">
			<path id="Layer" fill-rule="evenodd" class="s0" d="m21 6c0-3.1 2.4-5.5 5.5-5.5h64.1c3.1 0 5.5 2.4 5.5 5.5 0 3-2.4 5.5-5.5 5.5h-64.1c-3.1 0-5.5-2.5-5.5-5.5zm2.4 0c0 1.7 1.4 3.1 3.1 3.1h64.1c1.7 0 3.1-1.4 3.1-3.1 0-1.7-1.4-3.1-3.1-3.1h-64.1c-1.7 0-3.1 1.4-3.1 3.1z"/>
		</g>
	</g>
	<g id="Clip-Path" clip-path="url(#cp2)">
		<g id="Layer">
			<path id="Layer" fill-rule="evenodd" class="s0" d="m116.8 135.8v0.8h-0.1q-0.1 0.3-0.2 0.6-0.1 0.4-0.3 0.7-0.2 0.2-0.3 0.3 0 0.1-0.1 0.2c-0.4 0.4-1.1 0.7-1.8 0.7h-20.8c0 1 0 2.5 0 4 0 1.3 0 2.6-0.1 3.5 0 2 0 2-0.2 2.3-0.8 1.3-2.3 1.5-3.7 1.5h-61.3c-1.4 0-2.9-0.2-3.7-1.5-0.2-0.3-0.2-0.3-0.2-2.3-0.1-0.9-0.1-2.2-0.1-3.5 0-1.5 0-3 0-4h-20.8c-0.7 0-1.4-0.3-1.8-0.7q-0.1-0.1-0.1-0.2-0.1-0.1-0.2-0.3-0.3-0.3-0.4-0.7-0.2-0.5-0.3-1.1 0-0.1 0-0.2v-0.1q0.1-0.1 0.1-0.2v-0.2q0-0.1 0-0.2l0.1-0.1q0-0.1 0-0.1v-0.1q0 0 0.1-0.1 0 0 0 0 0-0.1 0-0.1 0.3-0.8 1.1-1.5c0.2-0.2 6-5.6 8.6-8.1q-0.4-0.5-0.9-0.9c-1.8-1.6-3.9-3.6-5.7-5.4-2.8-2.8-3.4-3.8-3.4-4.7q0-0.6 0.3-1.2c0.3-0.9 1-1.6 1.8-2q0.2-0.1 0.3-0.1 0.1 0 0.1 0c0.3-0.1 0.9-0.2 11.8-0.2 5.1 0 10.2 0 12.2 0h0.1c1.8 0 3.1 1.1 3.4 2.7 0.1 0.6 0.2 5.1 0.2 7.3h56.1c0-2.2 0.1-6.7 0.2-7.3 0.3-1.6 1.6-2.7 3.4-2.7h0.1c2 0 7.2 0 12.2 0 10.2 0 11.4 0.1 11.7 0.1q0.1 0.1 0.2 0.1 0.1 0.1 0.3 0.1c0.8 0.4 1.5 1.1 1.8 2h0.1q0.2 0.6 0.2 1.2c0 0.9-0.6 1.9-3.4 4.7-1.8 1.8-3.9 3.8-5.7 5.4q-0.5 0.4-0.9 0.9c2.6 2.5 8.3 7.9 8.6 8.1q0.7 0.7 1.1 1.5 0 0 0 0v0.1q0.1 0.1 0.1 0.2 0 0.1 0 0.2 0.1 0 0.1 0.1 0 0.1 0 0.2v0.1q0 0.1 0.1 0.2zm-2.5 0.1q0 0 0 0 0 0 0 0v-0.1-0.1q-0.1 0-0.1 0-0.1-0.4-0.5-0.7c-0.4-0.3-8-7.6-9.6-9.1l-0.9-0.9 0.9-0.9q0.8-0.7 2-1.7c1.6-1.5 3.6-3.3 5.2-5 2.4-2.3 2.9-3.1 3-3.3q0-0.2-0.1-0.3c-0.1-0.4-0.3-0.6-0.5-0.6q0 0-0.1-0.1c-1.3-0.1-12.5-0.1-23.3 0h-0.1c-0.8 0-0.9 0.4-1 0.6 0 0.7-0.1 6.1-0.1 8.2v1.2h-61.1v-1.2c0-2.1-0.1-7.5-0.1-8.2-0.1-0.2-0.2-0.6-1-0.6h-0.1c-10.8-0.1-22-0.1-23.3 0q-0.1 0.1-0.1 0.1-0.4 0.1-0.5 0.6-0.1 0.1-0.1 0.3c0.1 0.2 0.6 1 3 3.3 1.6 1.7 3.6 3.5 5.2 5q1.2 1 2 1.7l0.9 0.9-0.9 0.9c-1.5 1.4-9.2 8.7-9.6 9.1q-0.4 0.3-0.5 0.6v0.1h-0.1q0 0.1 0 0.1 0 0 0 0v0.1q0 0 0 0c0 0.1 0 0.1 0 0.1q0 0.2 0.1 0.3 0 0.2 0.1 0.3 0 0 0.1 0.1c0 0 23.2 0 23.2 0l0.1 1.2c0 3.4 0 8.4 0 9.9 0.2 0.1 0.6 0.2 1.5 0.2h61.3q1.1 0 1.5-0.2c0-1.5 0-6.5 0.1-9.9v-1.2c0 0 23.2 0 23.2 0q0.1-0.1 0.1-0.1 0.1-0.2 0.1-0.3 0.1-0.1 0.1-0.3zm-88 11.7q0 0 0 0zm87.9-11.9q0 0 0 0zm-23.4 11.9z"/>
		</g>
	</g>
	<path id="Layer" fill-rule="evenodd" class="s0" d="m18.8 40.4v-7.1c0-4.8 3.9-8.8 8.8-8.8h1.8v4.9c0 7.5 0 16 0 17q0 0.7 0 1.4l0.1 1.4h-1.9c-4.9 0-8.8-4-8.8-8.8zm2.5 0c0 3.3 2.5 5.9 5.6 6.3q0-0.2 0-0.3c0-1 0-9.5 0-17v-2.4c-3.1 0.4-5.6 3-5.6 6.3z"/>
	<path id="Layer" fill-rule="evenodd" class="s0" d="m89.5 49.2h-1.9l0.1-1.4q0-0.7 0-1.4c0-1.1 0-12.4 0-20.6v-1.3h1.8c4.9 0 8.8 4 8.8 8.8v7.1c0 4.8-3.9 8.8-8.8 8.8zm0.6-22.2c0.1 8.1 0.1 18.3 0.1 19.4q0 0.1 0 0.3c3.1-0.4 5.6-3 5.6-6.3v-7.1c0-3.3-2.5-6-5.7-6.3z"/>
	<path id="Layer" fill-rule="evenodd" class="s1" d="m38.4 35.1c0.3-0.9 1-1.4 1.9-1.4h12.5l3.8-11.9c0.3-0.9 1.1-1.4 2-1.4 0.8 0 1.6 0.5 1.9 1.4l3.8 11.9h12.5c0.9 0 1.6 0.5 1.9 1.4 0.3 0.8 0 1.7-0.7 2.2l-10.1 7.4 3.9 11.8c0.2 0.9-0.1 1.8-0.8 2.3-0.3 0.3-0.8 0.4-1.2 0.4q-0.6 0-1.2-0.4l-10-7.3-10.1 7.3c-0.7 0.5-1.7 0.5-2.4 0-0.7-0.5-1-1.4-0.7-2.3l3.8-11.8-10.1-7.4c-0.7-0.5-1-1.4-0.7-2.2zm3.2 1l10.5 7.6-4 12.3 10.5-7.6 10.4 7.6-4-12.3 10.5-7.6h-13l-3.9-12.3-4 12.3z"/>
	<path id="Layer" fill-rule="evenodd" class="s0" d="m14.1 40.7v-7.7c0-7.2 5.7-13 12.8-13.2q0-1 0-1.3c0-1.7 0.2-2.8 1-3.7 0.8-0.8 2-1 3.6-1h13.4q13.7 0 27.3 0h13.4c2.1 0 4.1 0.2 4.5 3.1 0 0.1 0 0.1 0 2.9 7.2 0.1 12.9 6 12.9 13.2v7.7c0 7.3-5.9 13.2-13.2 13.2h-0.9c-1.4 3.8-4 7-7.7 9.7-0.5 0.3-10.1 7-15.4 10.7v25.9h11.8c2 0 3.6 1.6 3.6 3.6v11.2c0 2-1.6 3.6-3.6 3.6h-38.1c-1.9 0-3.6-1.6-3.6-3.6v-11.2c0-2 1.7-3.6 3.6-3.6h11.8v-25.9c-4.7-3.3-14.9-10.4-15.4-10.7-3.7-2.7-6.3-5.9-7.7-9.7h-0.9c-7.3 0-13.2-5.9-13.2-13.2zm2.4 0c0 5.9 4.9 10.8 10.8 10.8h2.7l0.2 0.8c1.2 3.6 3.6 6.7 7.1 9.2 0.5 0.4 10.6 7.4 16 11.2l0.5 0.3v29.6h-14.3c-0.6 0-1.1 0.5-1.1 1.2v11.2c0 0.6 0.5 1.1 1.1 1.1h38.1c0.6 0 1.1-0.5 1.1-1.1v-11.2c0-0.7-0.5-1.2-1.1-1.2h-14.3v-29.6l0.5-0.3c5.2-3.6 15.5-10.8 16-11.2 3.5-2.5 5.9-5.6 7.1-9.2l0.2-0.8h2.7c5.9 0 10.8-4.9 10.8-10.8v-7.7c0-5.9-4.9-10.8-10.8-10.8h-2.1v-1.2c0-2.8 0-3.6 0-3.9-0.1-0.5-0.3-0.6-0.3-0.6-0.4-0.2-1.5-0.2-1.8-0.2l-13.4-0.1q-13.6 0-27.3 0l-13.4 0.1c-1.3 0-1.7 0.1-1.9 0.2q-0.2 0.3-0.2 2c0 0.4 0 2.5 0 3.7h-2.1c-5.9 0-10.8 4.9-10.8 10.8z"/>
</svg>