<svg version="1.2" xmlns="http://www.w3.org/2000/svg" viewBox="0 0 151 151" width="151" height="151">
	<title>Untitled design (9)-svg</title>
	<defs>
		<clipPath clipPathUnits="userSpaceOnUse" id="cp1">
			<path d="m0.18 30h65.82v120.5h-65.82z"/>
		</clipPath>
		<clipPath clipPathUnits="userSpaceOnUse" id="cp2">
			<path d="m85 30h65.18v120.5h-65.18z"/>
		</clipPath>
		<clipPath clipPathUnits="userSpaceOnUse" id="cp3">
			<path d="m32 0.5h86v95.5h-86z"/>
		</clipPath>
	</defs>
	<style>
		.s0 { fill: #ffffff } 
		.s1 { fill: #f7931d } 
	</style>
	<g id="Clip-Path" clip-path="url(#cp1)">
		<g id="Layer">
			<path id="Layer" class="s0" d="m25.2 138.6v11.9h5v-12.5q0-0.6-0.3-1.2l-22.5-40.5c-1.5-2.6-2.2-5.5-2.2-8.5v-47.3c0-2.8 2.2-5 5-5 2.7 0 5 2.2 5 5v35.9c-3.1 3.6-3.1 9 0.1 12.6l20.5 22.5 3.7-3.4-20.4-22.5c-1.7-1.8-1.6-4.6 0.1-6.3 0.9-0.9 2.1-1.3 3.3-1.3 1.3 0 2.4 0.6 3.3 1.5l17.5 19.5c0.2 0.2 0.5 0.4 0.8 0.6 9.9 5.6 16.1 16.3 16.1 27.7v23.2h5v-25h-0.1c-0.6-12.4-7.4-23.8-18.3-30.1l-17.3-19.2c-1.8-2-4.2-3.1-6.8-3.2-0.9 0-1.7 0.1-2.5 0.3v-32.8c0-5.5-4.5-10-10-10-5.5 0-10 4.5-10 10v47.3c0 3.8 1 7.6 2.8 10.9z"/>
		</g>
	</g>
	<g id="Clip-Path" clip-path="url(#cp2)">
		<g id="Layer">
			<path id="Layer" class="s0" d="m140.2 30.5c-5.5 0-10 4.5-10 10v32.8c-0.8-0.2-1.6-0.3-2.5-0.3-2.6 0.1-5.1 1.2-6.8 3.2l-17.3 19.1c-10.8 6.3-17.7 17.7-18.4 30.2v25h5v-23.2c0-11.4 6.2-22.1 16.2-27.8q0.4-0.2 0.6-0.5l17.6-19.5c0.8-0.9 2-1.5 3.2-1.5 1.3 0 2.5 0.4 3.4 1.3 1.7 1.7 1.7 4.5 0.1 6.3l-20.5 22.5 3.7 3.4 20.5-22.5c3.3-3.6 3.3-9 0.2-12.6v-35.9c0-2.8 2.2-5 5-5 2.7 0 5 2.2 5 5v47.1c0 3.1-0.9 6.1-2.5 8.9l-22.2 40.3q-0.3 0.6-0.3 1.2v12.5h5v-11.9l21.9-39.6c2-3.5 3.1-7.4 3.1-11.4v-47.1c0-5.5-4.5-10-10-10z"/>
		</g>
	</g>
	<g id="Clip-Path" clip-path="url(#cp3)">
		<g id="Layer">
			<path id="Layer" fill-rule="evenodd" class="s1" d="m116.4 72l-40 23.2q-0.2 0.1-0.4 0.2-0.1 0-0.2 0-0.3 0.1-0.6 0.1-0.3 0-0.7-0.1 0 0-0.1 0-0.2-0.1-0.5-0.2l-40-23.2c-0.7-0.4-1.2-1.2-1.2-2.1v-44.4q0-0.3 0.1-0.7 0-0.1 0.1-0.2 0-0.2 0.1-0.4 0.1-0.1 0.2-0.1 0.1-0.2 0.2-0.4 0.1 0 0.2-0.1 0.2-0.1 0.3-0.3 0 0 0 0 0.1 0 0.1 0l40-22.5c0.7-0.4 1.6-0.4 2.4 0l40 22.5q0 0 0 0 0 0 0 0 0.2 0.2 0.4 0.3 0.1 0.1 0.1 0.1 0.2 0.2 0.3 0.4 0.1 0 0.1 0.1 0.1 0.2 0.2 0.4 0.1 0.1 0.1 0.2 0.1 0.4 0.1 0.7v44.4c0 0.9-0.5 1.7-1.3 2.1zm-6.3-46.5l-16-9-34.9 19.6 16 9zm-37.4 24l-35-19.7v38.6l35 20.3zm-32.4-24l13.8 7.8 34.9-19.6-13.8-7.8zm72.4 4.3l-35 19.7v39.2l35-20.3z"/>
		</g>
	</g>
	<path id="Layer" class="s1" d="m107.7 63h-5v5h5z"/>
	<path id="Layer" class="s1" d="m97.7 68h-5v5h5z"/>
	<path id="Layer" class="s1" d="m87.7 73h-5v5h5z"/>
</svg>